<?xml version="1.0"?>
<svg version="1.1" xmlns="http://www.w3.org/2000/svg" width="400px" height="200px" style=""><path fill="#" d="M50.8466796875,109.5966796875q0-1.7861328125,0.19677734375-4.3291015625t0.7265625-5.2978515625t1.4228515625-5.4794921875t2.28564453125-4.8134765625t3.330078125-3.2998046875q1.6044921875-0.9990234375,3.693359375-0.9990234375q0.423828125,0,0.8779296875,0.060546875q5.267578125,0.484375,8.09814453125,2.40673828125t4.13232421875,4.8740234375t1.513671875,6.720703125t0.2119140625,7.94677734375q0,3.3603515625-0.62060546875,7.31103515625t-2.19482421875,7.37158203125t-4.34423828125,5.70654296875t-7.03857421875,2.28564453125q-2.603515625,0-4.55615234375-0.95361328125t-3.31494140625-2.54296875t-2.240234375-3.693359375t-1.33203125-4.359375t-0.65087890625-4.55615234375t-0.19677734375-4.359375z M56.9921875,108.234375q0,1.3017578125,0.0302734375,3.19384765625t0.25732421875,3.98095703125t0.59033203125,4.16259765625t1.07470703125,3.76904296875t1.80126953125,2.78515625t2.6337890625,1.150390625l0.1513671875,0q1.392578125,0,2.482421875-1.0595703125q1.150390625-1.1201171875,2.04345703125-2.6943359375t1.5439453125-3.31494140625t1.16552734375-2.98193359375l-0.12109375,0.2724609375q0.8779296875-2.78515625,1.1806640625-5.70654296875t0.302734375-5.76708984375q0-1.3623046875-0.181640625-3.28466796875t-0.59033203125-4.01123046875t-1.0595703125-4.13232421875t-1.64990234375-3.55712890625t-2.3310546875-2.30078125q-0.96875-0.5751953125-2.1494140625-0.60546875q-0.4541015625,0-0.908203125,0.0908203125q-1.5439453125,0.302734375-2.6337890625,1.513671875t-1.77099609375,2.98193359375t-1.04443359375,3.875t-0.56005859375,4.23828125t-0.22705078125,4.0869140625t-0.0302734375,3.31494140625z M70.6455078125,117.55859375l0-0.060546875l0,0.060546875z M83.592548828125,108.7490234375q0-1.4228515625,0.56005859375-2.10400390625t2.04345703125-0.68115234375q0.8779296875,0,1.64990234375,0.36328125t0.77197265625,1.5439453125q0.12109375,1.7255859375,0.12109375,3.61767578125t0.3330078125,3.58740234375q0.7568359375-1.2412109375,1.71044921875-2.482421875t2.10400390625-2.2099609375t2.5126953125-1.55908203125t2.966796875-0.59033203125q2.1796875,0,3.693359375,0.908203125t2.49755859375,2.361328125t1.4228515625,3.28466796875t0.43896484375,3.67822265625q0,2.845703125-0.86279296875,4.64697265625t-2.28564453125,2.83056640625t-3.22412109375,1.392578125t-3.61767578125,0.36328125q-1.6044921875,0-2.9970703125-0.62060546875t-1.9375-2.34619140625q0-0.484375,0.71142578125-0.60546875t1.01416015625-0.12109375q0.9990234375,0,1.4833984375,0.544921875q0.36328125,0.423828125,0.80224609375,0.86279296875t0.92333984375,0.43896484375q0.9384765625,0,1.9677734375-0.52978515625t1.89208984375-1.392578125t1.453125-2.04345703125t0.59033203125-2.421875q0-1.0595703125-0.181640625-2.6337890625t-0.62060546875-3.02734375t-1.2109375-2.5126953125t-1.95263671875-1.0595703125q-1.7861328125,0-3.22412109375,1.634765625t-2.3916015625,3.935546875t-1.4833984375,4.783203125t-0.52978515625,4.1474609375t0.2119140625,4.2080078125t0.43896484375,5.28271484375t0.43896484375,5.28271484375t0.2119140625,4.2080078125q0,0.423828125-0.34814453125,0.68115234375t-0.83251953125,0.40869140625t-0.98388671875,0.181640625t-0.74169921875,0.0302734375q-0.8173828125,0-1.71044921875-0.181640625t-1.22607421875-1.1201171875q-0.423828125-1.4833984375-0.787109375-4.22314453125t-0.65087890625-6.0546875t-0.49951171875-6.962890625t-0.36328125-7.03857421875t-0.22705078125-6.2060546875t-0.07568359375-4.48046875z M112.61478515625,120.94921875q0-2.119140625,0.46923828125-4.9951171875t1.58935546875-5.44921875t2.95166015625-4.37451171875t4.61669921875-1.80126953125q2.603515625,0,3.9052734375,1.49853515625t1.3017578125,4.04150390625q0,1.6650390625-0.62060546875,3.64794921875t-1.77099609375,3.75390625t-2.724609375,2.95166015625t-3.51171875,1.1806640625l-0.787109375-0.060546875q0,0.8173828125,0.2421875,2.19482421875t0.71142578125,2.73974609375t1.2109375,2.3916015625t1.80126953125,1.029296875q1.5439453125,0,2.966796875-1.2412109375t2.6943359375-2.7548828125t2.361328125-2.7548828125t1.998046875-1.2412109375q0.484375,0,0.9990234375,0.1513671875t0.5751953125,0.84765625q0,0.423828125-0.22705078125,0.6962890625t-0.40869140625,0.60546875q-0.9384765625,1.6044921875-2.04345703125,3.0576171875t-2.49755859375,2.6337890625t-3.04248046875,1.86181640625t-3.64794921875,0.68115234375q-2.603515625,0-4.3291015625-0.92333984375t-2.78515625-2.482421875t-1.52880859375-3.6025390625t-0.46923828125-4.28369140625z M118.03373046875,118.6484375l0.84765625,0.7568359375q0.60546875,0.544921875,1.2109375,0.2421875t1.08984375-1.10498046875t0.89306640625-1.98291015625t0.7265625-2.421875t0.46923828125-2.421875t0.1513671875-1.9677734375l0-1.029296875t-0.0908203125-1.08984375t-0.31787109375-0.86279296875t-0.71142578125-0.43896484375q-0.1513671875-0.0302734375-0.2724609375-0.0302734375q-1.029296875,0-1.755859375,1.3017578125q-0.787109375,1.453125-1.271484375,3.52685546875t-0.6962890625,4.25341796875t-0.2724609375,3.26953125z M137.94366210937,119.859375l0-0.8779296875q0-1.08984375,0.060546875-2.05859375q0.060546875-1.3623046875,0.060546875-2.240234375q0-0.484375,0.060546875-1.10498046875t0.302734375-0.98388671875q0.302734375-0.302734375,0.71142578125-0.62060546875t0.89306640625-0.31787109375q1.5439453125,0,2.421875,0.34814453125t0.9384765625,1.43798828125l0.12109375,0.9384765625q0.544921875-1.3017578125,1.453125-3.22412109375t2.10400390625-3.6630859375t2.6943359375-2.966796875t3.16357421875-1.22607421875q1.5439453125,0,2.54296875,1.453125t1.58935546875,3.70849609375t0.83251953125,5.025390625t0.3330078125,5.43408203125t0.12109375,4.85888671875t0.2119140625,3.31494140625q0.12109375,0.9384765625,0.40869140625,1.98291015625t0.28759765625,1.92236328125q0,0.2421875-0.34814453125,0.46923828125t-0.74169921875,0.37841796875t-0.80224609375,0.2421875t-0.59033203125,0.0908203125q-1.1806640625,0-1.68017578125-1.77099609375t-0.62060546875-4.43505859375t-0.12109375-5.76708984375t-0.2119140625-5.76708984375t-0.86279296875-4.43505859375t-2.07373046875-1.83154296875q-1.3017578125,0-2.6943359375,1.68017578125t-2.3916015625,4.46533203125q-0.96875,2.78515625-1.33203125,6.3271484375q-0.12109375,1.1201171875-0.12109375,2.240234375q0,2.4521484375,0.5146484375,4.904296875q0.060546875,0.423828125-0.34814453125,0.6357421875t-1.01416015625,0.3330078125t-1.22607421875,0.1513671875t-0.95361328125,0.0302734375q-1.1806640625,0-1.89208984375-0.83251953125t-1.10498046875-2.13427734375t-0.52978515625-2.92138671875t-0.16650390625-3.19384765625z M165.52791015625,88.26904296875q-0.07568359375-0.92333984375,0.12109375-1.6044921875t0.787109375-1.1201171875t1.89208984375-0.43896484375l4.8740234375,0q0.9990234375,0,2.61865234375,0.10595703125t3.4814453125,0.31787109375t3.70849609375,0.65087890625t3.37548828125,1.08984375t2.482421875,1.6044921875t0.95361328125,2.25537109375q0,1.8466796875-1.07470703125,3.46630859375t-2.6943359375,2.92138671875t-3.4208984375,2.31591796875t-3.22412109375,1.83154296875q5.630859375,1.2412109375,8.8095703125,5.146484375t3.1787109375,9.748046875q0,3.087890625-1.1806640625,6.10009765625t-3.22412109375,5.43408203125t-4.84375,3.9052734375t-6.00927734375,1.4833984375q-0.423828125,0-0.95361328125-0.0908203125t-0.96875-0.28759765625t-0.7568359375-0.56005859375t-0.31787109375-0.9384765625q0-2.6640625,2.8759765625-2.6640625q0.484375,0,1.13525390625,0.13623046875t1.01416015625,0.56005859375q1.6650390625-0.6962890625,3.04248046875-2.2099609375t2.3310546875-3.37548828125t1.4833984375-3.9052734375t0.52978515625-3.70849609375q0-1.998046875-0.59033203125-4.07177734375t-1.71044921875-3.8447265625t-2.7548828125-2.98193359375t-3.75390625-1.513671875q-0.544921875-0.060546875-1.19580078125-0.0908203125l-1.3017578125-0.060546875t-1.271484375-0.181640625t-1.07470703125-0.484375q0.2421875,5.025390625,0.62060546875,10.0205078125t1.01416015625,10.0205078125q0.2421875,0.2421875,0.3330078125,0.71142578125t0.1513671875,0.9990234375t0.060546875,1.01416015625l0,0.8173828125q0,0.544921875-0.36328125,0.89306640625t-0.86279296875,0.56005859375t-1.0595703125,0.2724609375t-0.98388671875,0.060546875q-1.3623046875,0-2.0888671875-0.36328125t-1.029296875-1.0595703125t-0.3935546875-1.58935546875t-0.1513671875-1.95263671875q-0.8173828125-8.4462890625-1.1806640625-16.7109375t-0.36328125-16.7109375q0-0.9990234375-0.07568359375-1.92236328125z M171.113359375,86.982421875q0,3.7236328125,0.2421875,7.46240234375t0.423828125,7.46240234375q1.3623046875-0.8173828125,3.572265625-1.92236328125t4.28369140625-2.43701171875t3.55712890625-2.9365234375t1.4833984375-3.4814453125q0-1.4833984375-1.755859375-2.25537109375t-4.0869140625-1.150390625t-4.55615234375-0.46923828125t-3.16357421875-0.2724609375z M197.56235351563,118.9814453125q0-2.78515625,0.65087890625-5.46435546875t1.10498046875-5.34326171875q0.12109375-0.6962890625,0.95361328125-0.86279296875t1.40771484375-0.16650390625q0.9990234375,0,1.6044921875,0.302734375q0.2421875,0.12109375,0.4541015625,0.2724609375t0.2119140625,0.3935546875q0,2.603515625-0.62060546875,5.0859375t-0.62060546875,5.267578125q0,0.9384765625,0.13623046875,1.77099609375t0.25732421875,1.64990234375l0.181640625,0.8779296875q0,0.2421875,0.0302734375,0.423828125t0.0908203125,0.423828125q0,0.544921875-0.77197265625,0.74169921875t-1.34716796875,0.19677734375q-0.8779296875,0-1.61962890625-0.34814453125t-1.16552734375-1.19580078125l-0.423828125-0.8779296875q-0.36328125-0.6962890625-0.36328125-1.55908203125t-0.1513671875-1.58935546875z M199.49985351563,100.7568359375l0-0.5751953125q0-1.4228515625,0.71142578125-2.54296875t2.13427734375-1.1201171875q0.181640625,0,0.34814453125,0.0302734375t0.34814453125,0.0302734375q0.36328125,0.060546875,0.95361328125,0.28759765625t0.59033203125,0.71142578125l0,0.060546875q-0.12109375,0.2421875-0.1513671875,0.49951171875t-0.1513671875,0.43896484375l0.060546875-0.060546875q-0.36328125,0.9384765625-0.59033203125,1.513671875t-0.49951171875,0.92333984375t-0.68115234375,0.49951171875t-1.16552734375,0.1513671875q-0.12109375,0-0.423828125-0.0302734375t-0.65087890625-0.12109375t-0.59033203125-0.2421875t-0.2421875-0.4541015625z M210.17638671875,120.283203125q0-1.7255859375,0.43896484375-3.55712890625t1.392578125-3.2998046875t2.40673828125-2.3916015625t3.51171875-0.92333984375q1.5439453125,0,3.25439453125,0.52978515625t3.13330078125,1.513671875t2.31591796875,2.40673828125t0.89306640625,3.1787109375q0,2.119140625-0.77197265625,4.0263671875t-2.16455078125,3.40576171875t-3.25439453125,2.361328125t-4.04150390625,0.86279296875q-1.7861328125,0-3.1181640625-0.65087890625t-2.22509765625-1.74072265625t-1.33203125-2.5732421875t-0.43896484375-3.1484375z M214.62658203125,120.22265625q0,0.544921875,0.16650390625,1.6044921875t0.49951171875,2.07373046875t0.86279296875,1.755859375t1.28662109375,0.68115234375q1.6044921875-0.181640625,2.64892578125-1.04443359375t1.6953125-2.10400390625t0.908203125-2.6943359375t0.25732421875-2.7548828125q0-1.6650390625-0.65087890625-2.78515625t-2.13427734375-1.81640625q0,0.060546875,0.060546875,0.060546875t0.060546875-0.060546875l-0.7568359375-0.181640625q-0.302734375-0.12109375-0.74169921875-0.2724609375t-0.86279296875-0.666015625q-1.1806640625,0.423828125-1.83154296875,1.08984375t-0.98388671875,1.61962890625t-0.40869140625,2.28564453125t-0.07568359375,3.208984375z M233.11366210937,111.8974609375q0-1.2412109375,0.7265625-2.13427734375t1.77099609375-1.453125t2.28564453125-0.83251953125t2.30078125-0.2724609375q0.8173828125,0,2.1796875,0.2421875t2.6640625,0.7265625t2.25537109375,1.271484375t0.95361328125,1.8466796875q0,0.484375-0.36328125,0.86279296875t-0.7568359375,0.37841796875q-0.8173828125,0-1.4833984375-0.52978515625t-1.37744140625-1.1201171875t-1.55908203125-1.1201171875t-1.9072265625-0.52978515625t-1.92236328125,0.68115234375t-0.86279296875,1.80126953125q0,1.8466796875,1.3017578125,3.61767578125t2.86083984375,3.7236328125t2.86083984375,4.10205078125t1.3017578125,4.7529296875q0,1.1201171875-0.46923828125,1.89208984375t-1.2412109375,1.25634765625t-1.74072265625,0.74169921875t-1.876953125,0.25732421875q-0.9990234375,0-2.3310546875-0.46923828125t-2.5126953125-1.2412109375t-1.98291015625-1.80126953125t-0.80224609375-2.1494140625q0-0.544921875,0.77197265625-0.6962890625t1.13525390625-0.1513671875q0.181640625,0,0.56005859375,0.12109375t0.74169921875,0.2724609375t0.65087890625,0.3330078125t0.22705078125,0.3935546875q0.302734375,0.36328125,0.92333984375,1.07470703125t1.2412109375,1.150390625t1.08984375,0.31787109375t0.46923828125-1.3623046875q0-2.361328125-1.271484375-4.34423828125t-2.77001953125-3.875t-2.77001953125-3.75390625t-1.271484375-3.98095703125z M254.4464453125,119.1025390625q0-2.1796875,0.56005859375-4.37451171875t1.74072265625-3.935546875t3.01220703125-2.83056640625t4.31396484375-1.08984375q1.0595703125,0,2.3310546875,0.25732421875t2.34619140625,0.8173828125t1.81640625,1.453125t0.74169921875,2.19482421875q0,0.8173828125-0.423828125,1.08984375t-1.1201171875,0.2724609375l-0.2119140625-0.302734375t-0.59033203125-0.77197265625t-0.80224609375-0.9990234375t-0.8173828125-0.89306640625q-1.2412109375-1.2412109375-2.3310546875-1.33203125l-0.2421875,0q-0.908203125,0-1.6953125,0.544921875q-0.8779296875,0.666015625-1.55908203125,1.876953125t-1.13525390625,2.5732421875t-0.71142578125,2.7548828125t-0.25732421875,2.30078125q0,1.2412109375,0.28759765625,2.83056640625t0.96875,3.01220703125t1.7255859375,2.3916015625t2.67919921875,0.96875q1.4833984375,0,2.6943359375-0.7265625t2.31591796875-1.61962890625t2.16455078125-1.6044921875t2.1796875-0.71142578125q0.484375,0,0.98388671875,0.12109375t0.49951171875,0.6357421875l0,0.181640625q-0.544921875,1.4228515625-1.8466796875,2.5126953125t-2.92138671875,1.89208984375t-3.3603515625,1.19580078125t-3.10302734375,0.3935546875q-2.54296875,0-4.46533203125-0.83251953125t-3.19384765625-2.28564453125t-1.92236328125-3.49658203125t-0.65087890625-4.46533203125z M280.25969726562,120.283203125q0-1.7255859375,0.43896484375-3.55712890625t1.392578125-3.2998046875t2.40673828125-2.3916015625t3.51171875-0.92333984375q1.5439453125,0,3.25439453125,0.52978515625t3.13330078125,1.513671875t2.31591796875,2.40673828125t0.89306640625,3.1787109375q0,2.119140625-0.77197265625,4.0263671875t-2.16455078125,3.40576171875t-3.25439453125,2.361328125t-4.04150390625,0.86279296875q-1.7861328125,0-3.1181640625-0.65087890625t-2.22509765625-1.74072265625t-1.33203125-2.5732421875t-0.43896484375-3.1484375z M284.70989257812,120.22265625q0,0.544921875,0.16650390625,1.6044921875t0.49951171875,2.07373046875t0.86279296875,1.755859375t1.28662109375,0.68115234375q1.6044921875-0.181640625,2.64892578125-1.04443359375t1.6953125-2.10400390625t0.908203125-2.6943359375t0.25732421875-2.7548828125q0-1.6650390625-0.65087890625-2.78515625t-2.13427734375-1.81640625q0,0.060546875,0.060546875,0.060546875t0.060546875-0.060546875l-0.7568359375-0.181640625q-0.302734375-0.12109375-0.74169921875-0.2724609375t-0.86279296875-0.666015625q-1.1806640625,0.423828125-1.83154296875,1.08984375t-0.98388671875,1.61962890625t-0.40869140625,2.28564453125t-0.07568359375,3.208984375z M303.19697265625,111.2314453125q0-1.2412109375,0.43896484375-2.0888671875t1.86181640625-0.84765625q0.544921875,0,1.3623046875,0.16650390625t0.9384765625,0.83251953125q0.302734375,1.7861328125,0.3330078125,3.875t0.2119140625,3.935546875q0.6962890625-1.3623046875,1.7861328125-2.9365234375t2.482421875-2.90625t3.02734375-2.2099609375t3.330078125-0.8779296875q0.12109375,0,0.4541015625,0.0908203125t0.62060546875,0.25732421875t0.34814453125,0.37841796875t-0.3330078125,0.3935546875q-0.12109375,0.36328125-0.5146484375,0.43896484375t-0.6962890625,0.07568359375q-0.181640625,0-0.5751953125-0.1513671875q-2.240234375,1.1806640625-3.814453125,3.208984375t-2.5732421875,4.49560546875t-1.453125,5.20703125t-0.4541015625,5.34326171875q0,1.3017578125-0.59033203125,1.57421875t-1.89208984375,0.2724609375q-0.6962890625,0-1.46826171875-0.1513671875t-1.07470703125-0.96875q-0.544921875-1.7255859375-0.89306640625-3.9658203125t-0.52978515625-4.61669921875t-0.25732421875-4.67724609375t-0.07568359375-4.1474609375z M324.71139648437,120.94921875q0-2.119140625,0.46923828125-4.9951171875t1.58935546875-5.44921875t2.95166015625-4.37451171875t4.61669921875-1.80126953125q2.603515625,0,3.9052734375,1.49853515625t1.3017578125,4.04150390625q0,1.6650390625-0.62060546875,3.64794921875t-1.77099609375,3.75390625t-2.724609375,2.95166015625t-3.51171875,1.1806640625l-0.787109375-0.060546875q0,0.8173828125,0.2421875,2.19482421875t0.71142578125,2.73974609375t1.2109375,2.3916015625t1.80126953125,1.029296875q1.5439453125,0,2.966796875-1.2412109375t2.6943359375-2.7548828125t2.361328125-2.7548828125t1.998046875-1.2412109375q0.484375,0,0.9990234375,0.1513671875t0.5751953125,0.84765625q0,0.423828125-0.22705078125,0.6962890625t-0.40869140625,0.60546875q-0.9384765625,1.6044921875-2.04345703125,3.0576171875t-2.49755859375,2.6337890625t-3.04248046875,1.86181640625t-3.64794921875,0.68115234375q-2.603515625,0-4.3291015625-0.92333984375t-2.78515625-2.482421875t-1.52880859375-3.6025390625t-0.46923828125-4.28369140625z M330.13034179687,118.6484375l0.84765625,0.7568359375q0.60546875,0.544921875,1.2109375,0.2421875t1.08984375-1.10498046875t0.89306640625-1.98291015625t0.7265625-2.421875t0.46923828125-2.421875t0.1513671875-1.9677734375l0-1.029296875t-0.0908203125-1.08984375t-0.31787109375-0.86279296875t-0.71142578125-0.43896484375q-0.1513671875-0.0302734375-0.2724609375-0.0302734375q-1.029296875,0-1.755859375,1.3017578125q-0.787109375,1.453125-1.271484375,3.52685546875t-0.6962890625,4.25341796875t-0.2724609375,3.26953125z"/><path fill="#000" d=""/></svg>
